<?xml version="1.0" encoding="UTF-8"?><svg id="c" xmlns="http://www.w3.org/2000/svg" width="23.23" height="32" viewBox="0 0 23.23 32"><path d="M5.8,13.51l-1.2-.02c.13-1.73,.35-3.38,.66-4.86h0c1.95-13.38,7.24-1.67,7.48-1.11-.15-.75-.32-1.47-.51-2.13C10.97,.98,9.1,.02,7.75,0c-1.34-.02-3.25,.86-4.67,5.22-.74,2.27-1.25,5.13-1.46,8.22l-1.62-.03,2.83,3.85,2.97-3.74Z" style="fill:#666;"/><path d="M4.94,22.99s0,0,0,0c-.33-2.08-.49-4.45-.45-6.91l-1.67,1.92-1.31-1.62c-.03,3.84,.39,7.46,1.18,10.24,1.27,4.41,3.14,5.36,4.48,5.38,1.34,.02,3.25-.86,4.67-5.22,.22-.66,.41-1.38,.59-2.13h-.07c-.67,1.31-5.72,10.7-7.43-1.66Z" style="fill:#666;"/><path d="M9.54,17.18c-.31,.23-.66,.35-1.09,.35-.46,0-.87-.11-1.24-.35l-.21-.13-.62,1,.16,.12c.5,.37,1.1,.56,1.77,.56,.88,0,1.6-.21,2.15-.63,.57-.43,.85-1,.85-1.7,0-.46-.15-.85-.44-1.17-.2-.21-.44-.37-.72-.48,.4-.37,.6-.71,.6-1.04,0-.41-.18-.75-.54-.99-.33-.23-.75-.35-1.24-.35-.54,0-1.03,.13-1.46,.39-.43,.26-.75,.62-.94,1.06l-.08,.2,1.05,.47,.1-.21c.1-.21,.27-.4,.52-.56,.24-.16,.49-.24,.78-.24,.52,0,.52,.17,.52,.25,0,.05-.04,.24-.54,.65-.33,.27-.72,.52-1.15,.74l-.23,.12,.66,.95,.21-.16c.27-.2,.54-.3,.83-.3,.22,0,.4,.07,.54,.2,.14,.14,.21,.3,.21,.5,0,.29-.14,.53-.43,.76Z" style="fill:#666;"/><path d="M14.27,14.46c-.16,0-.31,.01-.46,.04,.16-.16,.35-.31,.56-.46,.5-.34,1.02-.58,1.57-.71l.21-.05-.14-1.04-.25,.04c-1.17,.2-2.13,.68-2.86,1.43-.74,.75-1.11,1.63-1.11,2.61,0,.71,.23,1.3,.7,1.73,.46,.44,1.05,.66,1.76,.66,.64,0,1.18-.21,1.6-.62,.41-.41,.62-.92,.62-1.52s-.21-1.1-.63-1.5c-.42-.41-.95-.61-1.56-.61Zm.62,2.83c-.19,.2-.41,.3-.67,.3-.28,0-.51-.1-.71-.29-.2-.2-.3-.44-.3-.72s.1-.53,.3-.72c.2-.19,.43-.29,.71-.29,.26,0,.48,.1,.67,.3,.2,.21,.3,.44,.3,.71s-.1,.5-.3,.71Z" style="fill:#666;"/><path d="M19.31,12.36c-.77,0-1.38,.33-1.81,.97-.41,.61-.61,1.36-.61,2.21s.21,1.6,.61,2.21c.43,.65,1.04,.97,1.81,.97s1.42-.33,1.85-.97c.41-.61,.61-1.36,.61-2.21s-.21-1.6-.61-2.21c-.43-.65-1.05-.97-1.85-.97Zm.8,4.74c-.18,.35-.43,.51-.79,.51s-.59-.16-.77-.51c-.2-.39-.31-.91-.31-1.56s.1-1.16,.31-1.56c.18-.35,.43-.51,.79-.51s.59,.16,.77,.51c.2,.39,.31,.91,.31,1.56s-.1,1.16-.31,1.56Z" style="fill:#666;"/><path d="M21.82,9.58c-.78,0-1.41,.6-1.41,1.33s.63,1.33,1.41,1.33,1.41-.6,1.41-1.33-.63-1.33-1.41-1.33Zm0,2.23c-.52,0-.95-.4-.95-.9s.43-.9,.95-.9,.95,.4,.95,.9-.43,.9-.95,.9Z" style="fill:#666;"/></svg>