<?xml version="1.0" encoding="UTF-8"?>
<svg id="Layer_1" data-name="Layer 1" xmlns="http://www.w3.org/2000/svg" viewBox="0 0 200 200">
  <path d="M200,99.85c0-22.01-39.58-40.1-90.22-42.19v-15.12l-23.87,23.22,23.87,23.22v-16.08c22.33,.98,42.74,5.27,57.57,12.13,13.79,6.38,17.43,12.49,17.43,14.82,0,3.01-5.33,9.74-20.01,15.96-6.84,2.9-14.82,5.29-23.5,7.11,.43-4.28,.73-8.67,.92-13.14h15.12l-23.22-23.87-23.22,23.87h16.08c-.24,5.36-.66,10.61-1.26,15.7-8.28,1.01-16.93,1.54-25.69,1.54s-17.38-.53-25.65-1.54c-.99-8.22-1.52-16.8-1.52-25.49,0-24.36,4.09-47.97,11.21-64.77,6.22-14.68,12.96-20.01,15.96-20.01,3.73,0,13.73,8.66,20.76,33.88,5.4,.66,10.79,1.35,16.2,1.9-.03-.12-.05-.25-.08-.37C129.58,20.39,115.8,0,100,0c-23.41,0-42.39,44.77-42.39,100,0,7.89,.39,15.56,1.12,22.92-8.68-1.82-16.66-4.21-23.5-7.11-14.68-6.22-20.01-12.96-20.01-15.96,0-3.73,8.66-13.73,33.88-20.76,.66-5.4,1.35-10.79,1.9-16.2-.12,.03-.25,.05-.37,.08C20.39,70.27,0,84.05,0,99.85c0,17.54,25.12,32.58,60.93,39.03,6.43,35.91,21.5,61.12,39.07,61.12s32.62-25.21,39.05-61.11c35.82-6.45,60.95-21.5,60.95-39.04Zm-85.18,67.5c-6.38,13.79-12.49,17.43-14.82,17.43-3.01,0-9.74-5.33-15.96-20.01-2.92-6.88-5.32-14.92-7.14-23.67,7.42,.74,15.15,1.14,23.11,1.14s15.72-.4,23.15-1.14c-2.06,9.86-4.87,18.77-8.33,26.25Z" style="fill: #fff;"/>
</svg>